<?xml version="1.0" encoding="UTF-8" standalone="no"?>
<!-- Generator: Gravit.io -->
<svg xmlns="http://www.w3.org/2000/svg" xmlns:xlink="http://www.w3.org/1999/xlink" style="isolation:isolate" viewBox="0 0 512 512" width="512pt" height="512pt"><defs><clipPath id="_clipPath_7bFdIW9LuzLChHNUDKP2IvfoWTbHtgTY"><rect width="512" height="512"/></clipPath></defs><g clip-path="url(#_clipPath_7bFdIW9LuzLChHNUDKP2IvfoWTbHtgTY)"><rect width="512" height="512" style="fill:rgb(0,0,0)" fill-opacity="0"/><g filter="url(#bZoTn9QJJNX1C3y5q6rFjx1MO24cBqmX)"><g><defs><filter id="Qr6FeSRRgnXS7m1qwWhdmehczUSusFhN" x="-200%" y="-200%" width="400%" height="400%" filterUnits="objectBoundingBox" color-interpolation-filters="sRGB"><feGaussianBlur xmlns="http://www.w3.org/2000/svg" in="SourceGraphic" stdDeviation="21.46804531419514"/><feOffset xmlns="http://www.w3.org/2000/svg" dx="0" dy="0" result="pf_100_offsetBlur"/><feFlood xmlns="http://www.w3.org/2000/svg" flood-color="#000000" flood-opacity="0.25"/><feComposite xmlns="http://www.w3.org/2000/svg" in2="pf_100_offsetBlur" operator="in" result="pf_100_dropShadow"/><feBlend xmlns="http://www.w3.org/2000/svg" in="SourceGraphic" in2="pf_100_dropShadow" mode="normal"/></filter></defs><g filter="url(#Qr6FeSRRgnXS7m1qwWhdmehczUSusFhN)"><path d=" M 176.631 277.365 L 145.426 264.439 L 114.222 251.514 C 105.739 248 96 238.261 92.486 229.778 L 79.561 198.574 L 66.635 167.369 C 63.122 158.887 63.122 145.113 66.635 136.631 L 79.561 105.426 L 92.486 74.222 C 96 65.739 105.739 56 114.222 52.486 L 145.426 39.561 L 176.631 26.635 C 185.113 23.122 198.887 23.122 207.369 26.635 L 238.574 39.561 L 269.778 52.486 C 278.261 56 288 65.739 291.514 74.222 L 304.439 105.426 L 317.365 136.631 C 320.878 145.113 320.878 158.887 317.365 167.369 L 304.439 198.574 L 291.514 229.778 C 288 238.261 278.261 248 269.778 251.514 L 238.574 264.439 L 207.369 277.365 C 198.887 280.878 185.113 280.878 176.631 277.365 Z " fill="rgb(223,187,41)"/></g><defs><filter id="3JUdOKRtdXgbPrp0cROo4eEKxsaSXqyB" x="-200%" y="-200%" width="400%" height="400%" filterUnits="objectBoundingBox" color-interpolation-filters="sRGB"><feGaussianBlur xmlns="http://www.w3.org/2000/svg" in="SourceGraphic" stdDeviation="21.46804531419514"/><feOffset xmlns="http://www.w3.org/2000/svg" dx="0" dy="0" result="pf_100_offsetBlur"/><feFlood xmlns="http://www.w3.org/2000/svg" flood-color="#000000" flood-opacity="0.25"/><feComposite xmlns="http://www.w3.org/2000/svg" in2="pf_100_offsetBlur" operator="in" result="pf_100_dropShadow"/><feBlend xmlns="http://www.w3.org/2000/svg" in="SourceGraphic" in2="pf_100_dropShadow" mode="normal"/></filter></defs><g filter="url(#3JUdOKRtdXgbPrp0cROo4eEKxsaSXqyB)"><linearGradient id="_lgradient_29" x1="0.2578125" y1="0.08723958333333305" x2="0.8320312500000001" y2="0.8880208333333328" gradientTransform="matrix(197.211,0,0,197.211,93.394,53.394)" gradientUnits="userSpaceOnUse"><stop offset="0%" stop-opacity="1" style="stop-color:rgb(252,209,42)"/><stop offset="99.16666666666667%" stop-opacity="1" style="stop-color:rgb(208,176,46)"/></linearGradient><circle vector-effect="non-scaling-stroke" cx="191.99999999999994" cy="151.99999999999994" r="98.60566643880912" fill="url(#_lgradient_29)"/></g></g><defs><filter id="4xFUNEWWebc18CID4SxIp4I9KcsiSkQQ" x="-200%" y="-200%" width="400%" height="400%" filterUnits="objectBoundingBox" color-interpolation-filters="sRGB"><feGaussianBlur xmlns="http://www.w3.org/2000/svg" in="SourceGraphic" stdDeviation="21.46804531419514"/><feOffset xmlns="http://www.w3.org/2000/svg" dx="0" dy="0" result="pf_100_offsetBlur"/><feFlood xmlns="http://www.w3.org/2000/svg" flood-color="#000000" flood-opacity="0.25"/><feComposite xmlns="http://www.w3.org/2000/svg" in2="pf_100_offsetBlur" operator="in" result="pf_100_dropShadow"/><feBlend xmlns="http://www.w3.org/2000/svg" in="SourceGraphic" in2="pf_100_dropShadow" mode="normal"/></filter></defs><g filter="url(#4xFUNEWWebc18CID4SxIp4I9KcsiSkQQ)"><ellipse vector-effect="non-scaling-stroke" cx="175.4192170818505" cy="288.2413267582902" rx="111.41921708185043" ry="107.12114639323306" fill="rgb(236,236,236)"/></g><rect x="175.419" y="312.276" width="132.646" height="83.086" transform="matrix(1,0,0,1,0,0)" fill="rgb(236,236,236)"/><defs><filter id="FiFpsGuce8XGgl7Ji6ofNX5wv7S7q8b3" x="-200%" y="-200%" width="400%" height="400%" filterUnits="objectBoundingBox" color-interpolation-filters="sRGB"><feGaussianBlur xmlns="http://www.w3.org/2000/svg" in="SourceGraphic" stdDeviation="21.46804531419514"/><feOffset xmlns="http://www.w3.org/2000/svg" dx="0" dy="0" result="pf_100_offsetBlur"/><feFlood xmlns="http://www.w3.org/2000/svg" flood-color="#000000" flood-opacity="0.25"/><feComposite xmlns="http://www.w3.org/2000/svg" in2="pf_100_offsetBlur" operator="in" result="pf_100_dropShadow"/><feBlend xmlns="http://www.w3.org/2000/svg" in="SourceGraphic" in2="pf_100_dropShadow" mode="normal"/></filter></defs><g filter="url(#FiFpsGuce8XGgl7Ji6ofNX5wv7S7q8b3)"><linearGradient id="_lgradient_30" x1="0.7878327546296294" y1="0.03483016695451924" x2="0.2114438657407408" y2="0.9122049510650548" gradientTransform="matrix(279.869,0,0,281.327,168.131,114.036)" gradientUnits="userSpaceOnUse"><stop offset="1.6666666666666667%" stop-opacity="1" style="stop-color:rgb(208,208,208)"/><stop offset="100%" stop-opacity="1" style="stop-color:rgb(236,236,236)"/></linearGradient><ellipse vector-effect="non-scaling-stroke" cx="308.0654804270455" cy="254.69912795579884" rx="139.93451957295377" ry="140.66334519572945" fill="url(#_lgradient_30)"/></g><defs><filter id="ASQaa5nfMv0MS14mk8hfcFfqsd6LhO5D" x="-200%" y="-200%" width="400%" height="400%" filterUnits="objectBoundingBox" color-interpolation-filters="sRGB"><feGaussianBlur xmlns="http://www.w3.org/2000/svg" in="SourceGraphic" stdDeviation="10.73402265709757"/><feOffset xmlns="http://www.w3.org/2000/svg" dx="0" dy="0" result="pf_100_offsetBlur"/><feFlood xmlns="http://www.w3.org/2000/svg" flood-color="#000000" flood-opacity="0.25"/><feComposite xmlns="http://www.w3.org/2000/svg" in2="pf_100_offsetBlur" operator="in" result="pf_100_dropShadow"/><feBlend xmlns="http://www.w3.org/2000/svg" in="SourceGraphic" in2="pf_100_dropShadow" mode="normal"/></filter></defs><g filter="url(#ASQaa5nfMv0MS14mk8hfcFfqsd6LhO5D)"><path d="M 259.688 333.358 L 259.688 333.358 C 268.759 336.66 273.444 346.706 270.142 355.778 L 246.212 421.527 C 242.91 430.599 232.864 435.284 223.792 431.982 L 223.792 431.982 C 214.721 428.68 210.036 418.634 213.338 409.562 L 237.268 343.813 C 240.57 334.741 250.616 330.056 259.688 333.358 Z" style="stroke:none;fill:#73C2FB;stroke-miterlimit:10;"/></g><defs><filter id="KUbWlwkJpOeVfaflhCcPUkYHYcaazb7D" x="-200%" y="-200%" width="400%" height="400%" filterUnits="objectBoundingBox" color-interpolation-filters="sRGB"><feGaussianBlur xmlns="http://www.w3.org/2000/svg" in="SourceGraphic" stdDeviation="10.73402265709757"/><feOffset xmlns="http://www.w3.org/2000/svg" dx="0" dy="0" result="pf_100_offsetBlur"/><feFlood xmlns="http://www.w3.org/2000/svg" flood-color="#000000" flood-opacity="0.25"/><feComposite xmlns="http://www.w3.org/2000/svg" in2="pf_100_offsetBlur" operator="in" result="pf_100_dropShadow"/><feBlend xmlns="http://www.w3.org/2000/svg" in="SourceGraphic" in2="pf_100_dropShadow" mode="normal"/></filter></defs><g filter="url(#KUbWlwkJpOeVfaflhCcPUkYHYcaazb7D)"><path d="M 182.758 333.358 L 182.758 333.358 C 191.829 336.66 196.514 346.706 193.212 355.778 L 169.282 421.527 C 165.98 430.599 155.934 435.284 146.862 431.982 L 146.862 431.982 C 137.791 428.68 133.106 418.634 136.408 409.562 L 160.338 343.813 C 163.64 334.741 173.686 330.056 182.758 333.358 Z" style="stroke:none;fill:#73C2FB;stroke-miterlimit:10;"/></g><defs><filter id="FrTcuquoiHCAf1ergZY1EH57GpKDApXG" x="-200%" y="-200%" width="400%" height="400%" filterUnits="objectBoundingBox" color-interpolation-filters="sRGB"><feGaussianBlur xmlns="http://www.w3.org/2000/svg" in="SourceGraphic" stdDeviation="10.73402265709757"/><feOffset xmlns="http://www.w3.org/2000/svg" dx="0" dy="0" result="pf_100_offsetBlur"/><feFlood xmlns="http://www.w3.org/2000/svg" flood-color="#000000" flood-opacity="0.25"/><feComposite xmlns="http://www.w3.org/2000/svg" in2="pf_100_offsetBlur" operator="in" result="pf_100_dropShadow"/><feBlend xmlns="http://www.w3.org/2000/svg" in="SourceGraphic" in2="pf_100_dropShadow" mode="normal"/></filter></defs><g filter="url(#FrTcuquoiHCAf1ergZY1EH57GpKDApXG)"><path d="M 336.628 333.358 L 336.628 333.358 C 345.699 336.66 350.384 346.706 347.082 355.778 L 323.152 421.527 C 319.85 430.599 309.804 435.284 300.732 431.982 L 300.732 431.982 C 291.661 428.68 286.976 418.634 290.278 409.562 L 314.208 343.813 C 317.51 334.741 327.556 330.056 336.628 333.358 Z" style="stroke:none;fill:#73C2FB;stroke-miterlimit:10;"/></g></g><defs><filter id="bZoTn9QJJNX1C3y5q6rFjx1MO24cBqmX" x="-200%" y="-200%" width="400%" height="400%" filterUnits="objectBoundingBox" color-interpolation-filters="sRGB"><feGaussianBlur xmlns="http://www.w3.org/2000/svg" in="SourceGraphic" stdDeviation="21.46804531419514"/><feOffset xmlns="http://www.w3.org/2000/svg" dx="0" dy="0" result="pf_100_offsetBlur"/><feFlood xmlns="http://www.w3.org/2000/svg" flood-color="#FFFFFF" flood-opacity="0.65"/><feComposite xmlns="http://www.w3.org/2000/svg" in2="pf_100_offsetBlur" operator="in" result="pf_100_dropShadow"/><feBlend xmlns="http://www.w3.org/2000/svg" in="SourceGraphic" in2="pf_100_dropShadow" mode="normal"/></filter></defs></g></svg>