<?xml version="1.0" encoding="UTF-8" standalone="no"?>
<!-- Generator: Gravit.io -->
<svg xmlns="http://www.w3.org/2000/svg" xmlns:xlink="http://www.w3.org/1999/xlink" style="isolation:isolate" viewBox="0 0 512 512" width="512pt" height="512pt"><defs><clipPath id="_clipPath_QQ65xHMnaRypkGCLfdY5CsjyeBZkYt7f"><rect width="512" height="512"/></clipPath></defs><g clip-path="url(#_clipPath_QQ65xHMnaRypkGCLfdY5CsjyeBZkYt7f)"><rect width="512" height="512" style="fill:rgb(0,0,0)" fill-opacity="0"/><g><g><defs><filter id="3IxHdOmzxQOTpxCp77UGv0WzdjaVPjpE" x="-200%" y="-200%" width="400%" height="400%" filterUnits="objectBoundingBox" color-interpolation-filters="sRGB"><feGaussianBlur xmlns="http://www.w3.org/2000/svg" in="SourceGraphic" stdDeviation="21.46804531419514"/><feOffset xmlns="http://www.w3.org/2000/svg" dx="0" dy="0" result="pf_100_offsetBlur"/><feFlood xmlns="http://www.w3.org/2000/svg" flood-color="#000000" flood-opacity="0.25"/><feComposite xmlns="http://www.w3.org/2000/svg" in2="pf_100_offsetBlur" operator="in" result="pf_100_dropShadow"/><feBlend xmlns="http://www.w3.org/2000/svg" in="SourceGraphic" in2="pf_100_dropShadow" mode="normal"/></filter></defs><g filter="url(#3IxHdOmzxQOTpxCp77UGv0WzdjaVPjpE)"><path d=" M 176.631 278.76 L 145.426 265.835 L 114.222 252.91 C 105.739 249.396 96 239.657 92.486 231.174 L 79.561 199.969 L 66.635 168.765 C 63.122 160.282 63.122 146.509 66.635 138.026 L 79.561 106.822 L 92.486 75.617 C 96 67.134 105.739 57.395 114.222 53.881 L 145.426 40.956 L 176.631 28.031 C 185.113 24.517 198.887 24.517 207.369 28.031 L 238.574 40.956 L 269.778 53.881 C 278.261 57.395 288 67.134 291.514 75.617 L 304.439 106.822 L 317.365 138.026 C 320.878 146.509 320.878 160.282 317.365 168.765 L 304.439 199.969 L 291.514 231.174 C 288 239.657 278.261 249.396 269.778 252.91 L 238.574 265.835 L 207.369 278.76 C 198.887 282.274 185.113 282.274 176.631 278.76 Z " fill="rgb(223,187,41)"/></g><defs><filter id="anFSVoo67TzoBWgvipOXN9kbWwQ2g6o3" x="-200%" y="-200%" width="400%" height="400%" filterUnits="objectBoundingBox" color-interpolation-filters="sRGB"><feGaussianBlur xmlns="http://www.w3.org/2000/svg" in="SourceGraphic" stdDeviation="21.46804531419514"/><feOffset xmlns="http://www.w3.org/2000/svg" dx="0" dy="0" result="pf_100_offsetBlur"/><feFlood xmlns="http://www.w3.org/2000/svg" flood-color="#000000" flood-opacity="0.25"/><feComposite xmlns="http://www.w3.org/2000/svg" in2="pf_100_offsetBlur" operator="in" result="pf_100_dropShadow"/><feBlend xmlns="http://www.w3.org/2000/svg" in="SourceGraphic" in2="pf_100_dropShadow" mode="normal"/></filter></defs><g filter="url(#anFSVoo67TzoBWgvipOXN9kbWwQ2g6o3)"><linearGradient id="_lgradient_17" x1="0.2578125" y1="0.08723958333333305" x2="0.8320312500000001" y2="0.8880208333333328" gradientTransform="matrix(197.211,0,0,197.211,93.394,54.79)" gradientUnits="userSpaceOnUse"><stop offset="0%" stop-opacity="1" style="stop-color:rgb(252,209,42)"/><stop offset="99.16666666666667%" stop-opacity="1" style="stop-color:rgb(208,176,46)"/></linearGradient><circle vector-effect="non-scaling-stroke" cx="192.0000000000008" cy="153.3954538156937" r="98.60566643880912" fill="url(#_lgradient_17)"/></g></g><defs><filter id="CHUZYb8gk3NIdvaVo5bpVHWjFp3cuWds" x="-200%" y="-200%" width="400%" height="400%" filterUnits="objectBoundingBox" color-interpolation-filters="sRGB"><feGaussianBlur xmlns="http://www.w3.org/2000/svg" in="SourceGraphic" stdDeviation="21.46804531419514"/><feOffset xmlns="http://www.w3.org/2000/svg" dx="0" dy="0" result="pf_100_offsetBlur"/><feFlood xmlns="http://www.w3.org/2000/svg" flood-color="#000000" flood-opacity="0.25"/><feComposite xmlns="http://www.w3.org/2000/svg" in2="pf_100_offsetBlur" operator="in" result="pf_100_dropShadow"/><feBlend xmlns="http://www.w3.org/2000/svg" in="SourceGraphic" in2="pf_100_dropShadow" mode="normal"/></filter></defs><g filter="url(#CHUZYb8gk3NIdvaVo5bpVHWjFp3cuWds)"><ellipse vector-effect="non-scaling-stroke" cx="175.41921708185134" cy="289.636780573984" rx="111.41921708185046" ry="107.12114639323306" fill="rgb(236,236,236)"/></g><rect x="175.419" y="313.672" width="132.646" height="83.086" transform="matrix(1,0,0,1,0,0)" fill="rgb(236,236,236)"/><defs><filter id="o4b2A2UMdZrdjgLUXlyKE6Yj4UVIrMBn" x="-200%" y="-200%" width="400%" height="400%" filterUnits="objectBoundingBox" color-interpolation-filters="sRGB"><feGaussianBlur xmlns="http://www.w3.org/2000/svg" in="SourceGraphic" stdDeviation="21.46804531419514"/><feOffset xmlns="http://www.w3.org/2000/svg" dx="0" dy="0" result="pf_100_offsetBlur"/><feFlood xmlns="http://www.w3.org/2000/svg" flood-color="#000000" flood-opacity="0.25"/><feComposite xmlns="http://www.w3.org/2000/svg" in2="pf_100_offsetBlur" operator="in" result="pf_100_dropShadow"/><feBlend xmlns="http://www.w3.org/2000/svg" in="SourceGraphic" in2="pf_100_dropShadow" mode="normal"/></filter></defs><g filter="url(#o4b2A2UMdZrdjgLUXlyKE6Yj4UVIrMBn)"><linearGradient id="_lgradient_18" x1="0.7878327546296294" y1="0.03483016695451924" x2="0.2114438657407408" y2="0.9122049510650548" gradientTransform="matrix(279.869,0,0,281.327,168.131,115.431)" gradientUnits="userSpaceOnUse"><stop offset="1.6666666666666667%" stop-opacity="1" style="stop-color:rgb(208,208,208)"/><stop offset="100%" stop-opacity="1" style="stop-color:rgb(236,236,236)"/></linearGradient><ellipse vector-effect="non-scaling-stroke" cx="308.0654804270464" cy="256.09458177149247" rx="139.93451957295377" ry="140.66334519572945" fill="url(#_lgradient_18)"/></g><defs><filter id="qE9mo3DPSv2noUU68HXT8d8xcsJyR5Wj" x="-200%" y="-200%" width="400%" height="400%" filterUnits="objectBoundingBox" color-interpolation-filters="sRGB"><feGaussianBlur xmlns="http://www.w3.org/2000/svg" in="SourceGraphic" stdDeviation="10.73402265709757"/><feOffset xmlns="http://www.w3.org/2000/svg" dx="0" dy="0" result="pf_100_offsetBlur"/><feFlood xmlns="http://www.w3.org/2000/svg" flood-color="#000000" flood-opacity="0.25"/><feComposite xmlns="http://www.w3.org/2000/svg" in2="pf_100_offsetBlur" operator="in" result="pf_100_dropShadow"/><feBlend xmlns="http://www.w3.org/2000/svg" in="SourceGraphic" in2="pf_100_dropShadow" mode="normal"/></filter></defs><g filter="url(#qE9mo3DPSv2noUU68HXT8d8xcsJyR5Wj)"><path d="M 259.688 334.748 L 259.688 334.748 C 268.759 338.05 273.444 348.096 270.142 357.168 L 246.212 422.917 C 242.91 431.989 232.864 436.674 223.792 433.372 L 223.792 433.372 C 214.721 430.07 210.036 420.024 213.338 410.952 L 237.268 345.203 C 240.57 336.131 250.616 331.446 259.688 334.748 Z" style="stroke:none;fill:#73C2FB;stroke-miterlimit:10;"/></g><defs><filter id="Qgo08cSkym672HW8oLyYteaRhy2B3d2N" x="-200%" y="-200%" width="400%" height="400%" filterUnits="objectBoundingBox" color-interpolation-filters="sRGB"><feGaussianBlur xmlns="http://www.w3.org/2000/svg" in="SourceGraphic" stdDeviation="10.73402265709757"/><feOffset xmlns="http://www.w3.org/2000/svg" dx="0" dy="0" result="pf_100_offsetBlur"/><feFlood xmlns="http://www.w3.org/2000/svg" flood-color="#000000" flood-opacity="0.25"/><feComposite xmlns="http://www.w3.org/2000/svg" in2="pf_100_offsetBlur" operator="in" result="pf_100_dropShadow"/><feBlend xmlns="http://www.w3.org/2000/svg" in="SourceGraphic" in2="pf_100_dropShadow" mode="normal"/></filter></defs><g filter="url(#Qgo08cSkym672HW8oLyYteaRhy2B3d2N)"><path d="M 182.758 334.748 L 182.758 334.748 C 191.829 338.05 196.514 348.096 193.212 357.168 L 169.282 422.917 C 165.98 431.989 155.934 436.674 146.862 433.372 L 146.862 433.372 C 137.791 430.07 133.106 420.024 136.408 410.952 L 160.338 345.203 C 163.64 336.131 173.686 331.446 182.758 334.748 Z" style="stroke:none;fill:#73C2FB;stroke-miterlimit:10;"/></g><defs><filter id="lyCWuP15sndpV3TGYAdM9GHFcUl9og7c" x="-200%" y="-200%" width="400%" height="400%" filterUnits="objectBoundingBox" color-interpolation-filters="sRGB"><feGaussianBlur xmlns="http://www.w3.org/2000/svg" in="SourceGraphic" stdDeviation="10.73402265709757"/><feOffset xmlns="http://www.w3.org/2000/svg" dx="0" dy="0" result="pf_100_offsetBlur"/><feFlood xmlns="http://www.w3.org/2000/svg" flood-color="#000000" flood-opacity="0.25"/><feComposite xmlns="http://www.w3.org/2000/svg" in2="pf_100_offsetBlur" operator="in" result="pf_100_dropShadow"/><feBlend xmlns="http://www.w3.org/2000/svg" in="SourceGraphic" in2="pf_100_dropShadow" mode="normal"/></filter></defs><g filter="url(#lyCWuP15sndpV3TGYAdM9GHFcUl9og7c)"><path d="M 336.628 334.748 L 336.628 334.748 C 345.699 338.05 350.384 348.096 347.082 357.168 L 323.152 422.917 C 319.85 431.989 309.804 436.674 300.732 433.372 L 300.732 433.372 C 291.661 430.07 286.976 420.024 290.278 410.952 L 314.208 345.203 C 317.51 336.131 327.556 331.446 336.628 334.748 Z" style="stroke:none;fill:#73C2FB;stroke-miterlimit:10;"/></g></g></g></svg>