<?xml version="1.0" encoding="UTF-8" standalone="no"?>
<!-- Generator: Gravit.io -->
<svg xmlns="http://www.w3.org/2000/svg" xmlns:xlink="http://www.w3.org/1999/xlink" style="isolation:isolate" viewBox="0 0 512 512" width="512pt" height="512pt"><defs><clipPath id="_clipPath_eWYYaC5x8OVl962CHj3DaaEeCTcQPfER"><rect width="512" height="512"/></clipPath></defs><g clip-path="url(#_clipPath_eWYYaC5x8OVl962CHj3DaaEeCTcQPfER)"><rect width="512" height="512" style="fill:rgb(0,0,0)" fill-opacity="0"/><g><defs><filter id="cz2pJLXz7gM5mb4AA8bL6SoWG9nUFIxg" x="-200%" y="-200%" width="400%" height="400%" filterUnits="objectBoundingBox" color-interpolation-filters="sRGB"><feGaussianBlur xmlns="http://www.w3.org/2000/svg" in="SourceGraphic" stdDeviation="21.46804531419514"/><feOffset xmlns="http://www.w3.org/2000/svg" dx="0" dy="0" result="pf_100_offsetBlur"/><feFlood xmlns="http://www.w3.org/2000/svg" flood-color="#000000" flood-opacity="0.25"/><feComposite xmlns="http://www.w3.org/2000/svg" in2="pf_100_offsetBlur" operator="in" result="pf_100_dropShadow"/><feBlend xmlns="http://www.w3.org/2000/svg" in="SourceGraphic" in2="pf_100_dropShadow" mode="normal"/></filter></defs><g filter="url(#cz2pJLXz7gM5mb4AA8bL6SoWG9nUFIxg)"><linearGradient id="_lgradient_19" x1="0.6725493011604686" y1="0.9242481864996646" x2="0.21091880722167577" y2="0.022435828585996243" gradientTransform="matrix(256,0,0,284.634,67.989,25.395)" gradientUnits="userSpaceOnUse"><stop offset="0%" stop-opacity="1" style="stop-color:rgb(141,151,189)"/><stop offset="100%" stop-opacity="1" style="stop-color:rgb(202,213,255)"/></linearGradient><path d=" M 189.639 25.395 C 120.813 35.749 67.989 95.202 67.989 166.895 C 67.989 245.893 132.126 310.029 211.124 310.029 C 256.954 310.029 297.781 288.444 323.989 254.896 C 316.987 255.982 309.81 256.531 302.505 256.531 C 223.507 256.531 159.37 192.394 159.37 113.396 C 159.37 80.228 170.677 49.679 189.639 25.395 Z " fill-rule="evenodd" fill="url(#_lgradient_19)"/></g><defs><filter id="nhgweVR92LayvrtzwV5vorBPQVjWIDw6" x="-200%" y="-200%" width="400%" height="400%" filterUnits="objectBoundingBox" color-interpolation-filters="sRGB"><feGaussianBlur xmlns="http://www.w3.org/2000/svg" in="SourceGraphic" stdDeviation="21.46804531419514"/><feOffset xmlns="http://www.w3.org/2000/svg" dx="0" dy="0" result="pf_100_offsetBlur"/><feFlood xmlns="http://www.w3.org/2000/svg" flood-color="#000000" flood-opacity="0.25"/><feComposite xmlns="http://www.w3.org/2000/svg" in2="pf_100_offsetBlur" operator="in" result="pf_100_dropShadow"/><feBlend xmlns="http://www.w3.org/2000/svg" in="SourceGraphic" in2="pf_100_dropShadow" mode="normal"/></filter></defs><g filter="url(#nhgweVR92LayvrtzwV5vorBPQVjWIDw6)"><ellipse vector-effect="non-scaling-stroke" cx="175.4192170818509" cy="289.63678057398363" rx="111.41921708185043" ry="107.12114639323306" fill="rgb(236,236,236)"/></g><rect x="175.419" y="313.672" width="132.646" height="83.086" transform="matrix(1,0,0,1,0,0)" fill="rgb(236,236,236)"/><defs><filter id="r3fS7lEYm6SxqvtJ9SlvhlIFS9C4Fe9D" x="-200%" y="-200%" width="400%" height="400%" filterUnits="objectBoundingBox" color-interpolation-filters="sRGB"><feGaussianBlur xmlns="http://www.w3.org/2000/svg" in="SourceGraphic" stdDeviation="21.46804531419514"/><feOffset xmlns="http://www.w3.org/2000/svg" dx="0" dy="0" result="pf_100_offsetBlur"/><feFlood xmlns="http://www.w3.org/2000/svg" flood-color="#000000" flood-opacity="0.25"/><feComposite xmlns="http://www.w3.org/2000/svg" in2="pf_100_offsetBlur" operator="in" result="pf_100_dropShadow"/><feBlend xmlns="http://www.w3.org/2000/svg" in="SourceGraphic" in2="pf_100_dropShadow" mode="normal"/></filter></defs><g filter="url(#r3fS7lEYm6SxqvtJ9SlvhlIFS9C4Fe9D)"><linearGradient id="_lgradient_20" x1="0.7878327546296294" y1="0.03483016695451924" x2="0.2114438657407408" y2="0.9122049510650548" gradientTransform="matrix(279.869,0,0,281.327,168.131,115.431)" gradientUnits="userSpaceOnUse"><stop offset="1.6666666666666667%" stop-opacity="1" style="stop-color:rgb(208,208,208)"/><stop offset="100%" stop-opacity="1" style="stop-color:rgb(236,236,236)"/></linearGradient><ellipse vector-effect="non-scaling-stroke" cx="308.0654804270464" cy="256.09458177149224" rx="139.93451957295372" ry="140.66334519572945" fill="url(#_lgradient_20)"/></g><defs><filter id="Luo9W6xkXPQOcPLdhpehIyAgPzRtT3Cm" x="-200%" y="-200%" width="400%" height="400%" filterUnits="objectBoundingBox" color-interpolation-filters="sRGB"><feGaussianBlur xmlns="http://www.w3.org/2000/svg" in="SourceGraphic" stdDeviation="10.73402265709757"/><feOffset xmlns="http://www.w3.org/2000/svg" dx="0" dy="0" result="pf_100_offsetBlur"/><feFlood xmlns="http://www.w3.org/2000/svg" flood-color="#000000" flood-opacity="0.25"/><feComposite xmlns="http://www.w3.org/2000/svg" in2="pf_100_offsetBlur" operator="in" result="pf_100_dropShadow"/><feBlend xmlns="http://www.w3.org/2000/svg" in="SourceGraphic" in2="pf_100_dropShadow" mode="normal"/></filter></defs><g filter="url(#Luo9W6xkXPQOcPLdhpehIyAgPzRtT3Cm)"><path d="M 259.688 334.748 L 259.688 334.748 C 268.759 338.05 273.444 348.096 270.142 357.168 L 246.212 422.917 C 242.91 431.989 232.864 436.674 223.792 433.372 L 223.792 433.372 C 214.721 430.07 210.036 420.024 213.338 410.952 L 237.268 345.203 C 240.57 336.131 250.616 331.446 259.688 334.748 Z" style="stroke:none;fill:#73C2FB;stroke-miterlimit:10;"/></g><defs><filter id="YuzODoqKxDjzUgY2x44fhFGkyuyELmmB" x="-200%" y="-200%" width="400%" height="400%" filterUnits="objectBoundingBox" color-interpolation-filters="sRGB"><feGaussianBlur xmlns="http://www.w3.org/2000/svg" in="SourceGraphic" stdDeviation="10.73402265709757"/><feOffset xmlns="http://www.w3.org/2000/svg" dx="0" dy="0" result="pf_100_offsetBlur"/><feFlood xmlns="http://www.w3.org/2000/svg" flood-color="#000000" flood-opacity="0.25"/><feComposite xmlns="http://www.w3.org/2000/svg" in2="pf_100_offsetBlur" operator="in" result="pf_100_dropShadow"/><feBlend xmlns="http://www.w3.org/2000/svg" in="SourceGraphic" in2="pf_100_dropShadow" mode="normal"/></filter></defs><g filter="url(#YuzODoqKxDjzUgY2x44fhFGkyuyELmmB)"><path d="M 182.758 334.748 L 182.758 334.748 C 191.829 338.05 196.514 348.096 193.212 357.168 L 169.282 422.917 C 165.98 431.989 155.934 436.674 146.862 433.372 L 146.862 433.372 C 137.791 430.07 133.106 420.024 136.408 410.952 L 160.338 345.203 C 163.64 336.131 173.686 331.446 182.758 334.748 Z" style="stroke:none;fill:#73C2FB;stroke-miterlimit:10;"/></g><defs><filter id="C41zZoHrgPDGuQM840jMLPyWfmfLCuXk" x="-200%" y="-200%" width="400%" height="400%" filterUnits="objectBoundingBox" color-interpolation-filters="sRGB"><feGaussianBlur xmlns="http://www.w3.org/2000/svg" in="SourceGraphic" stdDeviation="10.73402265709757"/><feOffset xmlns="http://www.w3.org/2000/svg" dx="0" dy="0" result="pf_100_offsetBlur"/><feFlood xmlns="http://www.w3.org/2000/svg" flood-color="#000000" flood-opacity="0.25"/><feComposite xmlns="http://www.w3.org/2000/svg" in2="pf_100_offsetBlur" operator="in" result="pf_100_dropShadow"/><feBlend xmlns="http://www.w3.org/2000/svg" in="SourceGraphic" in2="pf_100_dropShadow" mode="normal"/></filter></defs><g filter="url(#C41zZoHrgPDGuQM840jMLPyWfmfLCuXk)"><path d="M 336.628 334.748 L 336.628 334.748 C 345.699 338.05 350.384 348.096 347.082 357.168 L 323.152 422.917 C 319.85 431.989 309.804 436.674 300.732 433.372 L 300.732 433.372 C 291.661 430.07 286.976 420.024 290.278 410.952 L 314.208 345.203 C 317.51 336.131 327.556 331.446 336.628 334.748 Z" style="stroke:none;fill:#73C2FB;stroke-miterlimit:10;"/></g></g></g></svg>