<?xml version="1.0" encoding="UTF-8" standalone="no"?>
<!-- Generator: Gravit.io -->
<svg xmlns="http://www.w3.org/2000/svg" xmlns:xlink="http://www.w3.org/1999/xlink" style="isolation:isolate" viewBox="0 0 512 512" width="512pt" height="512pt"><defs><clipPath id="_clipPath_KV48sloGw8jPouFkYgO1FuYl5RGEmUHL"><rect width="512" height="512"/></clipPath></defs><g clip-path="url(#_clipPath_KV48sloGw8jPouFkYgO1FuYl5RGEmUHL)"><rect width="512" height="512" style="fill:rgb(0,0,0)" fill-opacity="0"/><g filter="url(#2zRNPTOTuS2sgBksrWNdDYUYZn8pY5AW)"><path d="M 120.894 211.04 L 382.476 211.04 C 387.683 211.04 391.91 215.268 391.91 220.475 L 391.91 220.475 C 391.91 225.682 387.683 229.91 382.476 229.91 L 120.894 229.91 C 115.687 229.91 111.46 225.682 111.46 220.475 L 111.46 220.475 C 111.46 215.268 115.687 211.04 120.894 211.04 Z" style="stroke:none;fill:#626262;stroke-miterlimit:10;"/><path d="M 152.684 164.3 L 414.256 164.3 C 419.463 164.3 423.69 168.528 423.69 173.735 L 423.69 173.735 C 423.69 178.942 419.463 183.17 414.256 183.17 L 152.684 183.17 C 147.477 183.17 143.25 178.942 143.25 173.735 L 143.25 173.735 C 143.25 168.528 147.477 164.3 152.684 164.3 Z" style="stroke:none;fill:#626262;stroke-miterlimit:10;"/><path d="M 176.984 250.3 L 438.566 250.3 C 443.773 250.3 448 254.528 448 259.735 L 448 259.735 C 448 264.942 443.773 269.17 438.566 269.17 L 176.984 269.17 C 171.777 269.17 167.55 264.942 167.55 259.735 L 167.55 259.735 C 167.55 254.528 171.777 250.3 176.984 250.3 Z" style="stroke:none;fill:#626262;stroke-miterlimit:10;"/><path d="M 73.434 288.63 L 335.016 288.63 C 340.223 288.63 344.45 292.858 344.45 298.065 L 344.45 298.065 C 344.45 303.272 340.223 307.5 335.016 307.5 L 73.434 307.5 C 68.227 307.5 64 303.272 64 298.065 L 64 298.065 C 64 292.858 68.227 288.63 73.434 288.63 Z" style="stroke:none;fill:#626262;stroke-miterlimit:10;"/><path d="M 141.464 328.83 L 403.046 328.83 C 408.253 328.83 412.48 333.058 412.48 338.265 L 412.48 338.265 C 412.48 343.472 408.253 347.7 403.046 347.7 L 141.464 347.7 C 136.257 347.7 132.03 343.472 132.03 338.265 L 132.03 338.265 C 132.03 333.058 136.257 328.83 141.464 328.83 Z" style="stroke:none;fill:#626262;stroke-miterlimit:10;"/></g><defs><filter id="2zRNPTOTuS2sgBksrWNdDYUYZn8pY5AW" x="-200%" y="-200%" width="400%" height="400%" filterUnits="objectBoundingBox" color-interpolation-filters="sRGB"><feGaussianBlur xmlns="http://www.w3.org/2000/svg" in="SourceGraphic" stdDeviation="21.46804531419514"/><feOffset xmlns="http://www.w3.org/2000/svg" dx="0" dy="0" result="pf_100_offsetBlur"/><feFlood xmlns="http://www.w3.org/2000/svg" flood-color="#000000" flood-opacity="0.25"/><feComposite xmlns="http://www.w3.org/2000/svg" in2="pf_100_offsetBlur" operator="in" result="pf_100_dropShadow"/><feBlend xmlns="http://www.w3.org/2000/svg" in="SourceGraphic" in2="pf_100_dropShadow" mode="normal"/></filter></defs></g></svg>