<?xml version="1.0" encoding="UTF-8" standalone="no"?>
<!-- Generator: Gravit.io -->
<svg xmlns="http://www.w3.org/2000/svg" xmlns:xlink="http://www.w3.org/1999/xlink" style="isolation:isolate" viewBox="0 0 512 512" width="512pt" height="512pt"><defs><clipPath id="_clipPath_Q31B6A0OV6mfnT8WJQHTAc9ptqWtHZVf"><rect width="512" height="512"/></clipPath></defs><g clip-path="url(#_clipPath_Q31B6A0OV6mfnT8WJQHTAc9ptqWtHZVf)"><g><path d=" M 232.946 444.047 L 186.139 424.659 L 139.332 405.271 C 126.608 400.001 111.999 385.392 106.729 372.668 L 87.341 325.861 L 67.953 279.054 C 62.682 266.33 62.682 245.67 67.953 232.946 L 87.341 186.139 L 106.729 139.332 C 111.999 126.608 126.608 111.999 139.332 106.729 L 186.139 87.341 L 232.946 67.953 C 245.67 62.682 266.33 62.682 279.054 67.953 L 325.861 87.341 L 372.668 106.729 C 385.392 111.999 400.001 126.608 405.271 139.332 L 424.659 186.139 L 444.047 232.946 C 449.318 245.67 449.318 266.33 444.047 279.054 L 424.659 325.861 L 405.271 372.668 C 400.001 385.392 385.392 400.001 372.668 405.271 L 325.861 424.659 L 279.054 444.047 C 266.33 449.318 245.67 449.318 232.946 444.047 Z " fill="rgb(223,187,41)"/><defs><filter id="Z3W2ymWgPgPQj8t7SirdIU3tCR6KRNb5" x="-200%" y="-200%" width="400%" height="400%" filterUnits="objectBoundingBox" color-interpolation-filters="sRGB"><feGaussianBlur xmlns="http://www.w3.org/2000/svg" in="SourceGraphic" stdDeviation="21.46804531419514"/><feOffset xmlns="http://www.w3.org/2000/svg" dx="0" dy="0" result="pf_100_offsetBlur"/><feFlood xmlns="http://www.w3.org/2000/svg" flood-color="#000000" flood-opacity="0.25"/><feComposite xmlns="http://www.w3.org/2000/svg" in2="pf_100_offsetBlur" operator="in" result="pf_100_dropShadow"/><feBlend xmlns="http://www.w3.org/2000/svg" in="SourceGraphic" in2="pf_100_dropShadow" mode="normal"/></filter></defs><g filter="url(#Z3W2ymWgPgPQj8t7SirdIU3tCR6KRNb5)"><linearGradient id="_lgradient_12" x1="0.2578125" y1="0.08723958333333305" x2="0.8320312500000001" y2="0.8880208333333328" gradientTransform="matrix(295.817,0,0,295.817,108.092,108.092)" gradientUnits="userSpaceOnUse"><stop offset="0%" stop-opacity="1" style="stop-color:rgb(252,209,42)"/><stop offset="99.16666666666667%" stop-opacity="1" style="stop-color:rgb(208,176,46)"/></linearGradient><circle vector-effect="non-scaling-stroke" cx="256.0000000000001" cy="256.0000000000001" r="147.90849965821366" fill="url(#_lgradient_12)"/></g></g></g></svg>