<?xml version="1.0" encoding="UTF-8" standalone="no"?>
<!-- Generator: Gravit.io -->
<svg xmlns="http://www.w3.org/2000/svg" xmlns:xlink="http://www.w3.org/1999/xlink" style="isolation:isolate" viewBox="0 0 512 512" width="512pt" height="512pt"><defs><clipPath id="_clipPath_ZPcNNdEvGZfFgUj0xvi9d1V1IvxTthsh"><rect width="512" height="512"/></clipPath></defs><g clip-path="url(#_clipPath_ZPcNNdEvGZfFgUj0xvi9d1V1IvxTthsh)"><g><g><path d=" M 176.631 278.76 L 145.426 265.835 L 114.222 252.91 C 105.739 249.396 96 239.657 92.486 231.174 L 79.561 199.969 L 66.635 168.765 C 63.122 160.282 63.122 146.509 66.635 138.026 L 79.561 106.822 L 92.486 75.617 C 96 67.134 105.739 57.395 114.222 53.881 L 145.426 40.956 L 176.631 28.031 C 185.113 24.517 198.887 24.517 207.369 28.031 L 238.574 40.956 L 269.778 53.881 C 278.261 57.395 288 67.134 291.514 75.617 L 304.439 106.822 L 317.365 138.026 C 320.878 146.509 320.878 160.282 317.365 168.765 L 304.439 199.969 L 291.514 231.174 C 288 239.657 278.261 249.396 269.778 252.91 L 238.574 265.835 L 207.369 278.76 C 198.887 282.274 185.113 282.274 176.631 278.76 Z " fill="rgb(223,187,41)"/><defs><filter id="DtldbSIa7MKIHlfqmUZnYXwZ57lESlZr" x="-200%" y="-200%" width="400%" height="400%" filterUnits="objectBoundingBox" color-interpolation-filters="sRGB"><feGaussianBlur xmlns="http://www.w3.org/2000/svg" in="SourceGraphic" stdDeviation="21.46804531419514"/><feOffset xmlns="http://www.w3.org/2000/svg" dx="0" dy="0" result="pf_100_offsetBlur"/><feFlood xmlns="http://www.w3.org/2000/svg" flood-color="#000000" flood-opacity="0.25"/><feComposite xmlns="http://www.w3.org/2000/svg" in2="pf_100_offsetBlur" operator="in" result="pf_100_dropShadow"/><feBlend xmlns="http://www.w3.org/2000/svg" in="SourceGraphic" in2="pf_100_dropShadow" mode="normal"/></filter></defs><g filter="url(#DtldbSIa7MKIHlfqmUZnYXwZ57lESlZr)"><linearGradient id="_lgradient_2" x1="0.2578125" y1="0.08723958333333305" x2="0.8320312500000001" y2="0.8880208333333328" gradientTransform="matrix(197.211,0,0,197.211,93.394,54.79)" gradientUnits="userSpaceOnUse"><stop offset="0%" stop-opacity="1" style="stop-color:rgb(252,209,42)"/><stop offset="99.16666666666667%" stop-opacity="1" style="stop-color:rgb(208,176,46)"/></linearGradient><circle vector-effect="non-scaling-stroke" cx="192.0000000000001" cy="153.39545381569496" r="98.60566643880912" fill="url(#_lgradient_2)"/></g></g><ellipse vector-effect="non-scaling-stroke" cx="175.41921708185066" cy="289.5421988024923" rx="111.41921708185043" ry="107.12114639323306" fill="rgb(236,236,236)"/><rect x="175.419" y="313.577" width="132.646" height="83.086" transform="matrix(1,0,0,1,0,0)" fill="rgb(236,236,236)"/><linearGradient id="_lgradient_3" x1="0.7878327546296294" y1="0.03483016695451924" x2="0.2114438657407408" y2="0.9122049510650548" gradientTransform="matrix(279.869,0,0,281.327,168.131,115.337)" gradientUnits="userSpaceOnUse"><stop offset="1.6666666666666667%" stop-opacity="1" style="stop-color:rgb(208,208,208)"/><stop offset="100%" stop-opacity="1" style="stop-color:rgb(236,236,236)"/></linearGradient><ellipse vector-effect="non-scaling-stroke" cx="308.06548042704617" cy="256" rx="139.93451957295372" ry="140.66334519572945" fill="url(#_lgradient_3)"/></g></g></svg>