<?xml version="1.0" encoding="UTF-8" standalone="no"?>
<!-- Generator: Gravit.io -->
<svg xmlns="http://www.w3.org/2000/svg" xmlns:xlink="http://www.w3.org/1999/xlink" style="isolation:isolate" viewBox="0 0 512 512" width="512pt" height="512pt"><defs><clipPath id="_clipPath_rwnogPOOfzfiST7DXLLVdERoUOqQuaqn"><rect width="512" height="512"/></clipPath></defs><g clip-path="url(#_clipPath_rwnogPOOfzfiST7DXLLVdERoUOqQuaqn)"><g><g><path d=" M 176.631 323.731 L 145.426 310.806 L 114.222 297.88 C 105.739 294.367 96 284.627 92.486 276.145 L 79.561 244.94 L 66.635 213.735 C 63.122 205.253 63.122 191.479 66.635 182.997 L 79.561 151.792 L 92.486 120.588 C 96 112.105 105.739 102.366 114.222 98.852 L 145.426 85.927 L 176.631 73.001 C 185.113 69.488 198.887 69.488 207.369 73.001 L 238.574 85.927 L 269.778 98.852 C 278.261 102.366 288 112.105 291.514 120.588 L 304.439 151.792 L 317.365 182.997 C 320.878 191.479 320.878 205.253 317.365 213.735 L 304.439 244.94 L 291.514 276.145 C 288 284.627 278.261 294.367 269.778 297.88 L 238.574 310.806 L 207.369 323.731 C 198.887 327.244 185.113 327.244 176.631 323.731 Z " fill="rgb(223,187,41)"/><defs><filter id="29BhYTG0FCGCTU3Ko0OsKjAXrQxHWL21" x="-200%" y="-200%" width="400%" height="400%" filterUnits="objectBoundingBox" color-interpolation-filters="sRGB"><feGaussianBlur xmlns="http://www.w3.org/2000/svg" in="SourceGraphic" stdDeviation="21.46804531419514"/><feOffset xmlns="http://www.w3.org/2000/svg" dx="0" dy="0" result="pf_100_offsetBlur"/><feFlood xmlns="http://www.w3.org/2000/svg" flood-color="#000000" flood-opacity="0.25"/><feComposite xmlns="http://www.w3.org/2000/svg" in2="pf_100_offsetBlur" operator="in" result="pf_100_dropShadow"/><feBlend xmlns="http://www.w3.org/2000/svg" in="SourceGraphic" in2="pf_100_dropShadow" mode="normal"/></filter></defs><g filter="url(#29BhYTG0FCGCTU3Ko0OsKjAXrQxHWL21)"><linearGradient id="_lgradient_20" x1="0.2578125" y1="0.08723958333333305" x2="0.8320312500000001" y2="0.8880208333333328" gradientTransform="matrix(197.211,0,0,197.211,93.394,99.76)" gradientUnits="userSpaceOnUse"><stop offset="0%" stop-opacity="1" style="stop-color:rgb(252,209,42)"/><stop offset="99.16666666666667%" stop-opacity="1" style="stop-color:rgb(208,176,46)"/></linearGradient><circle vector-effect="non-scaling-stroke" cx="192.00000000000006" cy="198.3660543099827" r="98.60566643880912" fill="url(#_lgradient_20)"/></g></g><ellipse vector-effect="non-scaling-stroke" cx="175.4192170818506" cy="334.51279929678003" rx="111.41921708185043" ry="107.12114639323306" fill="rgb(236,236,236)"/><rect x="175.419" y="358.548" width="132.646" height="83.086" transform="matrix(1,0,0,1,0,0)" fill="rgb(236,236,236)"/><linearGradient id="_lgradient_21" x1="0.7878327546296294" y1="0.03483016695451924" x2="0.2114438657407408" y2="0.9122049510650548" gradientTransform="matrix(279.869,0,0,281.327,168.131,160.307)" gradientUnits="userSpaceOnUse"><stop offset="1.6666666666666667%" stop-opacity="1" style="stop-color:rgb(208,208,208)"/><stop offset="100%" stop-opacity="1" style="stop-color:rgb(236,236,236)"/></linearGradient><ellipse vector-effect="non-scaling-stroke" cx="308.06548042704617" cy="300.97060049428774" rx="139.93451957295372" ry="140.66334519572945" fill="url(#_lgradient_21)"/></g></g></svg>