<?xml version="1.0" encoding="UTF-8" standalone="no"?>
<!-- Generator: Gravit.io -->
<svg xmlns="http://www.w3.org/2000/svg" xmlns:xlink="http://www.w3.org/1999/xlink" style="isolation:isolate" viewBox="0 0 512 512" width="512pt" height="512pt"><defs><clipPath id="_clipPath_i0M1bJW31gGIv2b2oh1Qj6OAg8pCzMJR"><rect width="512" height="512"/></clipPath></defs><g clip-path="url(#_clipPath_i0M1bJW31gGIv2b2oh1Qj6OAg8pCzMJR)"><g><linearGradient id="_lgradient_22" x1="0.6725493011604686" y1="0.9242481864996646" x2="0.21091880722167577" y2="0.022435828585996243" gradientTransform="matrix(256,0,0,284.634,64,70.366)" gradientUnits="userSpaceOnUse"><stop offset="1.6666666666666667%" stop-opacity="1" style="stop-color:rgb(58,83,166)"/><stop offset="100%" stop-opacity="1" style="stop-color:rgb(152,176,255)"/></linearGradient><path d=" M 185.65 70.366 C 116.824 80.719 64 140.172 64 211.866 C 64 290.864 128.136 355 207.134 355 C 252.964 355 293.792 333.414 320 299.866 C 312.998 300.953 305.82 301.501 298.515 301.501 C 219.517 301.501 155.381 237.365 155.381 158.367 C 155.381 125.198 166.687 94.65 185.65 70.366 Z " fill-rule="evenodd" fill="url(#_lgradient_22)"/><ellipse vector-effect="non-scaling-stroke" cx="175.41921708185055" cy="334.51279929678003" rx="111.41921708185043" ry="107.12114639323306" fill="rgb(236,236,236)"/><rect x="175.419" y="358.548" width="132.646" height="83.086" transform="matrix(1,0,0,1,0,0)" fill="rgb(236,236,236)"/><linearGradient id="_lgradient_23" x1="0.7878327546296294" y1="0.03483016695451924" x2="0.2114438657407408" y2="0.9122049510650548" gradientTransform="matrix(279.869,0,0,281.327,168.131,160.307)" gradientUnits="userSpaceOnUse"><stop offset="1.6666666666666667%" stop-opacity="1" style="stop-color:rgb(208,208,208)"/><stop offset="100%" stop-opacity="1" style="stop-color:rgb(236,236,236)"/></linearGradient><ellipse vector-effect="non-scaling-stroke" cx="308.0654804270463" cy="300.97060049428774" rx="139.93451957295372" ry="140.66334519572945" fill="url(#_lgradient_23)"/></g></g></svg>