<?xml version="1.0" encoding="UTF-8" standalone="no"?>
<!-- Generator: Gravit.io -->
<svg xmlns="http://www.w3.org/2000/svg" xmlns:xlink="http://www.w3.org/1999/xlink" style="isolation:isolate" viewBox="0 0 512 512" width="512pt" height="512pt"><defs><clipPath id="_clipPath_XLWK6rcEi9bxVrNoa3ZskGMQy55yBkpW"><rect width="512" height="512"/></clipPath></defs><g clip-path="url(#_clipPath_XLWK6rcEi9bxVrNoa3ZskGMQy55yBkpW)"><g><linearGradient id="_lgradient_4" x1="0.6725493011604686" y1="0.9242481864996646" x2="0.21091880722167577" y2="0.022435828585996243" gradientTransform="matrix(256,0,0,284.634,64,25.395)" gradientUnits="userSpaceOnUse"><stop offset="1.6666666666666667%" stop-opacity="1" style="stop-color:rgb(58,83,166)"/><stop offset="100%" stop-opacity="1" style="stop-color:rgb(152,176,255)"/></linearGradient><path d=" M 185.65 25.395 C 116.824 35.749 64 95.202 64 166.895 C 64 245.893 128.136 310.029 207.134 310.029 C 252.964 310.029 293.792 288.444 320 254.896 C 312.998 255.982 305.82 256.531 298.515 256.531 C 219.517 256.531 155.381 192.394 155.381 113.396 C 155.381 80.228 166.687 49.679 185.65 25.395 Z " fill-rule="evenodd" fill="url(#_lgradient_4)"/><ellipse vector-effect="non-scaling-stroke" cx="175.41921708185066" cy="289.5421988024922" rx="111.41921708185043" ry="107.12114639323306" fill="rgb(236,236,236)"/><rect x="175.419" y="313.577" width="132.646" height="83.086" transform="matrix(1,0,0,1,0,0)" fill="rgb(236,236,236)"/><linearGradient id="_lgradient_5" x1="0.7878327546296294" y1="0.03483016695451924" x2="0.2114438657407408" y2="0.9122049510650548" gradientTransform="matrix(279.869,0,0,281.327,168.131,115.337)" gradientUnits="userSpaceOnUse"><stop offset="1.6666666666666667%" stop-opacity="1" style="stop-color:rgb(208,208,208)"/><stop offset="100%" stop-opacity="1" style="stop-color:rgb(236,236,236)"/></linearGradient><ellipse vector-effect="non-scaling-stroke" cx="308.0654804270463" cy="255.99999999999983" rx="139.93451957295372" ry="140.66334519572945" fill="url(#_lgradient_5)"/></g></g></svg>