<?xml version="1.0" encoding="UTF-8" standalone="no"?>
<!-- Generator: Gravit.io -->
<svg xmlns="http://www.w3.org/2000/svg" xmlns:xlink="http://www.w3.org/1999/xlink" style="isolation:isolate" viewBox="0 0 512 512" width="512pt" height="512pt"><defs><clipPath id="_clipPath_5cXCfTBKwF8pNjVmbWiDvsrriS7XOZFR"><rect width="512" height="512"/></clipPath></defs><g clip-path="url(#_clipPath_5cXCfTBKwF8pNjVmbWiDvsrriS7XOZFR)"><g><ellipse vector-effect="non-scaling-stroke" cx="175.4192170818505" cy="289.5421988024963" rx="111.41921708185043" ry="107.12114639323306" fill="rgb(236,236,236)"/><rect x="175.419" y="313.577" width="132.646" height="83.086" transform="matrix(1,0,0,1,0,0)" fill="rgb(236,236,236)"/><linearGradient id="_lgradient_6" x1="0.7878327546296294" y1="0.03483016695451924" x2="0.2114438657407408" y2="0.9122049510650548" gradientTransform="matrix(279.869,0,0,281.327,168.131,115.337)" gradientUnits="userSpaceOnUse"><stop offset="1.6666666666666667%" stop-opacity="1" style="stop-color:rgb(208,208,208)"/><stop offset="100%" stop-opacity="1" style="stop-color:rgb(236,236,236)"/></linearGradient><ellipse vector-effect="non-scaling-stroke" cx="308.0654804270459" cy="256" rx="139.93451957295372" ry="140.66334519572945" fill="url(#_lgradient_6)"/><path d="M 182.758 334.988 L 182.758 334.988 C 191.829 338.29 196.514 348.335 193.212 357.406 L 169.282 423.148 C 165.98 432.22 155.934 436.904 146.862 433.602 L 146.862 433.602 C 137.791 430.3 133.106 420.255 136.408 411.184 L 160.338 345.442 C 163.64 336.37 173.686 331.686 182.758 334.988 Z" style="stroke:none;fill:#73C2FB;stroke-miterlimit:10;"/><path d="M 336.628 334.988 L 336.628 334.988 C 345.699 338.29 350.384 348.335 347.082 357.406 L 323.152 423.148 C 319.85 432.22 309.804 436.904 300.732 433.602 L 300.732 433.602 C 291.661 430.3 286.976 420.255 290.278 411.184 L 314.208 345.442 C 317.51 336.37 327.556 331.686 336.628 334.988 Z" style="stroke:none;fill:#73C2FB;stroke-miterlimit:10;"/><path d="M 259.687 334.988 L 259.687 334.988 C 268.759 338.29 273.444 348.335 270.142 357.407 L 234.223 456.088 C 230.921 465.159 220.875 469.844 211.803 466.542 L 211.803 466.542 C 202.731 463.24 198.046 453.195 201.348 444.123 L 237.267 345.442 C 240.569 336.371 250.615 331.686 259.687 334.988 Z" style="stroke:none;fill:#73C2FB;stroke-miterlimit:10;"/></g></g></svg>