<?xml version="1.0" encoding="UTF-8" standalone="no"?>
<!-- Generator: Gravit.io -->
<svg xmlns="http://www.w3.org/2000/svg" xmlns:xlink="http://www.w3.org/1999/xlink" style="isolation:isolate" viewBox="0 0 512 512" width="512pt" height="512pt"><defs><clipPath id="_clipPath_SL68xLngT8xZJQUUbuh2egQzw3LBhdwd"><rect width="512" height="512"/></clipPath></defs><g clip-path="url(#_clipPath_SL68xLngT8xZJQUUbuh2egQzw3LBhdwd)"><g><ellipse vector-effect="non-scaling-stroke" cx="175.41921708185072" cy="254.07450363595478" rx="111.41921708185043" ry="107.12114639323306" fill="rgb(236,236,236)"/><rect x="175.419" y="278.11" width="132.646" height="83.086" transform="matrix(1,0,0,1,0,0)" fill="rgb(236,236,236)"/><linearGradient id="_lgradient_14" x1="0.7878327546296294" y1="0.03483016695451924" x2="0.2114438657407408" y2="0.9122049510650548" gradientTransform="matrix(279.869,0,0,281.327,168.131,79.869)" gradientUnits="userSpaceOnUse"><stop offset="1.6666666666666667%" stop-opacity="1" style="stop-color:rgb(208,208,208)"/><stop offset="100%" stop-opacity="1" style="stop-color:rgb(236,236,236)"/></linearGradient><ellipse vector-effect="non-scaling-stroke" cx="308.0654804270463" cy="220.5323048334586" rx="139.93451957295377" ry="140.66334519572948" fill="url(#_lgradient_14)"/><path d="M 182.758 299.518 L 182.758 299.518 C 191.829 302.82 196.514 312.866 193.212 321.938 L 169.282 387.687 C 165.98 396.759 155.934 401.444 146.862 398.142 L 146.862 398.142 C 137.791 394.84 133.106 384.794 136.408 375.722 L 160.338 309.973 C 163.64 300.901 173.686 296.216 182.758 299.518 Z" style="stroke:none;fill:#73C2FB;stroke-miterlimit:10;"/><path d="M 336.628 299.518 L 336.628 299.518 C 345.699 302.82 350.384 312.866 347.082 321.938 L 323.152 387.687 C 319.85 396.759 309.804 401.444 300.732 398.142 L 300.732 398.142 C 291.661 394.84 286.976 384.794 290.278 375.722 L 314.208 309.973 C 317.51 300.901 327.556 296.216 336.628 299.518 Z" style="stroke:none;fill:#73C2FB;stroke-miterlimit:10;"/><path d="M 259.687 299.518 L 259.687 299.518 C 268.759 302.82 273.444 312.865 270.142 321.937 L 234.223 420.618 C 230.921 429.689 220.875 434.374 211.803 431.072 L 211.803 431.072 C 202.731 427.77 198.046 417.725 201.348 408.653 L 237.267 309.972 C 240.569 300.901 250.615 296.216 259.687 299.518 Z" style="stroke:none;fill:#73C2FB;stroke-miterlimit:10;"/></g></g></svg>