<?xml version="1.0" encoding="UTF-8" standalone="no"?>
<!-- Generator: Gravit.io -->
<svg xmlns="http://www.w3.org/2000/svg" xmlns:xlink="http://www.w3.org/1999/xlink" style="isolation:isolate" viewBox="0 0 512 512" width="512pt" height="512pt"><defs><clipPath id="_clipPath_Qs7CIjbSFJvTmiXb3ZylfZ4NgLxVmb3s"><rect width="512" height="512"/></clipPath></defs><g clip-path="url(#_clipPath_Qs7CIjbSFJvTmiXb3ZylfZ4NgLxVmb3s)"><g><g><path d=" M 176.631 288.379 L 145.426 275.454 L 114.222 262.529 C 105.739 259.015 96 249.276 92.486 240.793 L 79.561 209.588 L 66.635 178.384 C 63.122 169.901 63.122 156.128 66.635 147.645 L 79.561 116.44 L 92.486 85.236 C 96 76.753 105.739 67.014 114.222 63.5 L 145.426 50.575 L 176.631 37.65 C 185.113 34.136 198.887 34.136 207.369 37.65 L 238.574 50.575 L 269.778 63.5 C 278.261 67.014 288 76.753 291.514 85.236 L 304.439 116.44 L 317.365 147.645 C 320.878 156.128 320.878 169.901 317.365 178.384 L 304.439 209.588 L 291.514 240.793 C 288 249.276 278.261 259.015 269.778 262.529 L 238.574 275.454 L 207.369 288.379 C 198.887 291.893 185.113 291.893 176.631 288.379 Z " fill="rgb(223,187,41)"/><defs><filter id="MhoZVGZpkFP05NYKejnmf2bbflGw7d9L" x="-200%" y="-200%" width="400%" height="400%" filterUnits="objectBoundingBox" color-interpolation-filters="sRGB"><feGaussianBlur xmlns="http://www.w3.org/2000/svg" in="SourceGraphic" stdDeviation="21.46804531419514"/><feOffset xmlns="http://www.w3.org/2000/svg" dx="0" dy="0" result="pf_100_offsetBlur"/><feFlood xmlns="http://www.w3.org/2000/svg" flood-color="#000000" flood-opacity="0.25"/><feComposite xmlns="http://www.w3.org/2000/svg" in2="pf_100_offsetBlur" operator="in" result="pf_100_dropShadow"/><feBlend xmlns="http://www.w3.org/2000/svg" in="SourceGraphic" in2="pf_100_dropShadow" mode="normal"/></filter></defs><g filter="url(#MhoZVGZpkFP05NYKejnmf2bbflGw7d9L)"><linearGradient id="_lgradient_16" x1="0.2578125" y1="0.08723958333333305" x2="0.8320312500000001" y2="0.8880208333333328" gradientTransform="matrix(197.211,0,0,197.211,93.394,64.409)" gradientUnits="userSpaceOnUse"><stop offset="0%" stop-opacity="1" style="stop-color:rgb(252,209,42)"/><stop offset="99.16666666666667%" stop-opacity="1" style="stop-color:rgb(208,176,46)"/></linearGradient><circle vector-effect="non-scaling-stroke" cx="192.00000000000063" cy="163.0144134534246" r="98.60566643880912" fill="url(#_lgradient_16)"/></g></g><g><ellipse vector-effect="non-scaling-stroke" cx="175.4192170818506" cy="298.9290498202588" rx="111.41921708185043" ry="107.12114639323306" fill="rgb(236,236,236)"/><rect x="175.419" y="322.964" width="132.646" height="83.086" transform="matrix(1,0,0,1,0,0)" fill="rgb(236,236,236)"/><linearGradient id="_lgradient_17" x1="0.7878327546296294" y1="0.03483016695451924" x2="0.2114438657407408" y2="0.9122049510650548" gradientTransform="matrix(279.869,0,0,281.327,168.131,124.724)" gradientUnits="userSpaceOnUse"><stop offset="1.6666666666666667%" stop-opacity="1" style="stop-color:rgb(208,208,208)"/><stop offset="100%" stop-opacity="1" style="stop-color:rgb(236,236,236)"/></linearGradient><ellipse vector-effect="non-scaling-stroke" cx="308.06548042704617" cy="265.38685101776287" rx="139.93451957295377" ry="140.66334519572945" fill="url(#_lgradient_17)"/><path d="M 182.758 344.368 L 182.758 344.368 C 191.829 347.67 196.514 357.716 193.212 366.788 L 169.282 432.537 C 165.98 441.609 155.934 446.294 146.862 442.992 L 146.862 442.992 C 137.791 439.69 133.106 429.644 136.408 420.572 L 160.338 354.823 C 163.64 345.751 173.686 341.066 182.758 344.368 Z" style="stroke:none;fill:#73C2FB;stroke-miterlimit:10;"/><path d="M 336.628 344.368 L 336.628 344.368 C 345.699 347.67 350.384 357.716 347.082 366.788 L 323.152 432.537 C 319.85 441.609 309.804 446.294 300.732 442.992 L 300.732 442.992 C 291.661 439.69 286.976 429.644 290.278 420.572 L 314.208 354.823 C 317.51 345.751 327.556 341.066 336.628 344.368 Z" style="stroke:none;fill:#73C2FB;stroke-miterlimit:10;"/><path d="M 259.687 344.368 L 259.687 344.368 C 268.759 347.67 273.444 357.717 270.142 366.789 L 234.223 465.477 C 230.921 474.549 220.875 479.234 211.803 475.932 L 211.803 475.932 C 202.731 472.63 198.046 462.583 201.348 453.511 L 237.267 354.823 C 240.569 345.751 250.615 341.066 259.687 344.368 Z" style="stroke:none;fill:#73C2FB;stroke-miterlimit:10;"/></g></g></g></svg>