<?xml version="1.0" encoding="UTF-8" standalone="no"?>
<!-- Generator: Gravit.io -->
<svg xmlns="http://www.w3.org/2000/svg" xmlns:xlink="http://www.w3.org/1999/xlink" style="isolation:isolate" viewBox="0 0 512 512" width="512pt" height="512pt"><defs><clipPath id="_clipPath_9soRZxi946UqouXpb70yqAMmIDPaXPV9"><rect width="512" height="512"/></clipPath></defs><g clip-path="url(#_clipPath_9soRZxi946UqouXpb70yqAMmIDPaXPV9)"><g><g><path d=" M 176.631 276.567 L 145.426 263.641 L 114.222 250.716 C 105.739 247.202 96 237.463 92.486 228.98 L 79.561 197.776 L 66.635 166.571 C 63.122 158.089 63.122 144.315 66.635 135.832 L 79.561 104.628 L 92.486 73.423 C 96 64.941 105.739 55.201 114.222 51.688 L 145.426 38.762 L 176.631 25.837 C 185.113 22.323 198.887 22.323 207.369 25.837 L 238.574 38.762 L 269.778 51.688 C 278.261 55.201 288 64.941 291.514 73.423 L 304.439 104.628 L 317.365 135.832 C 320.878 144.315 320.878 158.089 317.365 166.571 L 304.439 197.776 L 291.514 228.98 C 288 237.463 278.261 247.202 269.778 250.716 L 238.574 263.641 L 207.369 276.567 C 198.887 280.08 185.113 280.08 176.631 276.567 Z " fill="rgb(223,187,41)"/><defs><filter id="PYwErmT07ZCKBf2Kq4Zo4nQShYimeJiV" x="-200%" y="-200%" width="400%" height="400%" filterUnits="objectBoundingBox" color-interpolation-filters="sRGB"><feGaussianBlur xmlns="http://www.w3.org/2000/svg" in="SourceGraphic" stdDeviation="21.46804531419514"/><feOffset xmlns="http://www.w3.org/2000/svg" dx="0" dy="0" result="pf_100_offsetBlur"/><feFlood xmlns="http://www.w3.org/2000/svg" flood-color="#000000" flood-opacity="0.25"/><feComposite xmlns="http://www.w3.org/2000/svg" in2="pf_100_offsetBlur" operator="in" result="pf_100_dropShadow"/><feBlend xmlns="http://www.w3.org/2000/svg" in="SourceGraphic" in2="pf_100_dropShadow" mode="normal"/></filter></defs><g filter="url(#PYwErmT07ZCKBf2Kq4Zo4nQShYimeJiV)"><linearGradient id="_lgradient_8" x1="0.2578125" y1="0.08723958333333305" x2="0.8320312500000001" y2="0.8880208333333328" gradientTransform="matrix(197.211,0,0,197.211,93.394,52.596)" gradientUnits="userSpaceOnUse"><stop offset="0%" stop-opacity="1" style="stop-color:rgb(252,209,42)"/><stop offset="99.16666666666667%" stop-opacity="1" style="stop-color:rgb(208,176,46)"/></linearGradient><circle vector-effect="non-scaling-stroke" cx="192.00000000000045" cy="151.20178064350375" r="98.60566643880912" fill="url(#_lgradient_8)"/></g></g><g><ellipse vector-effect="non-scaling-stroke" cx="175.41921708185055" cy="287.11641701033795" rx="111.41921708185043" ry="107.12114639323306" fill="rgb(236,236,236)"/><rect x="175.419" y="311.151" width="132.646" height="83.086" transform="matrix(1,0,0,1,0,0)" fill="rgb(236,236,236)"/><linearGradient id="_lgradient_9" x1="0.7878327546296294" y1="0.03483016695451924" x2="0.2114438657407408" y2="0.9122049510650548" gradientTransform="matrix(279.869,0,0,281.327,168.131,112.911)" gradientUnits="userSpaceOnUse"><stop offset="1.6666666666666667%" stop-opacity="1" style="stop-color:rgb(208,208,208)"/><stop offset="100%" stop-opacity="1" style="stop-color:rgb(236,236,236)"/></linearGradient><ellipse vector-effect="non-scaling-stroke" cx="308.06548042704605" cy="253.5742182078421" rx="139.93451957295372" ry="140.6633451957295" fill="url(#_lgradient_9)"/><path d="M 182.758 332.558 L 182.758 332.558 C 191.829 335.86 196.514 345.906 193.212 354.978 L 169.282 420.727 C 165.98 429.799 155.934 434.484 146.862 431.182 L 146.862 431.182 C 137.791 427.88 133.106 417.834 136.408 408.762 L 160.338 343.013 C 163.64 333.941 173.686 329.256 182.758 332.558 Z" style="stroke:none;fill:#73C2FB;stroke-miterlimit:10;"/><path d="M 336.628 332.558 L 336.628 332.558 C 345.699 335.86 350.384 345.906 347.082 354.978 L 323.152 420.727 C 319.85 429.799 309.804 434.484 300.732 431.182 L 300.732 431.182 C 291.661 427.88 286.976 417.834 290.278 408.762 L 314.208 343.013 C 317.51 333.941 327.556 329.256 336.628 332.558 Z" style="stroke:none;fill:#73C2FB;stroke-miterlimit:10;"/><path d="M 259.687 332.558 L 259.687 332.558 C 268.759 335.86 273.444 345.905 270.142 354.977 L 234.223 453.658 C 230.921 462.729 220.875 467.414 211.803 464.112 L 211.803 464.112 C 202.731 460.81 198.046 450.765 201.348 441.693 L 237.267 343.012 C 240.569 333.941 250.615 329.256 259.687 332.558 Z" style="stroke:none;fill:#73C2FB;stroke-miterlimit:10;"/></g></g></g></svg>