<?xml version="1.0" encoding="UTF-8" standalone="no"?>
<!-- Generator: Gravit.io -->
<svg xmlns="http://www.w3.org/2000/svg" xmlns:xlink="http://www.w3.org/1999/xlink" style="isolation:isolate" viewBox="0 0 512 512" width="512pt" height="512pt"><defs><clipPath id="_clipPath_5XmAcoBeadIKtaucNKQIqlpY2fxndqZ2"><rect width="512" height="512"/></clipPath></defs><g clip-path="url(#_clipPath_5XmAcoBeadIKtaucNKQIqlpY2fxndqZ2)"><g><linearGradient id="_lgradient_10" x1="0.6725493011604686" y1="0.9242481864996646" x2="0.21091880722167577" y2="0.022435828585996243" gradientTransform="matrix(256,0,0,284.634,67.989,23.202)" gradientUnits="userSpaceOnUse"><stop offset="1.6666666666666667%" stop-opacity="1" style="stop-color:rgb(58,83,166)"/><stop offset="100%" stop-opacity="1" style="stop-color:rgb(152,176,255)"/></linearGradient><path d=" M 189.639 23.202 C 120.813 33.555 67.989 93.008 67.989 164.701 C 67.989 243.699 132.126 307.836 211.124 307.836 C 256.954 307.836 297.781 286.25 323.989 252.702 C 316.987 253.789 309.81 254.337 302.505 254.337 C 223.507 254.337 159.37 190.201 159.37 111.203 C 159.37 78.034 170.677 47.486 189.639 23.202 Z " fill-rule="evenodd" fill="url(#_lgradient_10)"/><g><ellipse vector-effect="non-scaling-stroke" cx="175.41921708185043" cy="287.1164170103368" rx="111.41921708185043" ry="107.12114639323306" fill="rgb(236,236,236)"/><rect x="175.419" y="311.151" width="132.646" height="83.086" transform="matrix(1,0,0,1,0,0)" fill="rgb(236,236,236)"/><linearGradient id="_lgradient_11" x1="0.7878327546296294" y1="0.03483016695451924" x2="0.2114438657407408" y2="0.9122049510650548" gradientTransform="matrix(279.869,0,0,281.327,168.131,112.911)" gradientUnits="userSpaceOnUse"><stop offset="1.6666666666666667%" stop-opacity="1" style="stop-color:rgb(208,208,208)"/><stop offset="100%" stop-opacity="1" style="stop-color:rgb(236,236,236)"/></linearGradient><ellipse vector-effect="non-scaling-stroke" cx="308.06548042704594" cy="253.57421820784225" rx="139.93451957295372" ry="140.66334519572945" fill="url(#_lgradient_11)"/><path d="M 182.758 332.558 L 182.758 332.558 C 191.829 335.86 196.514 345.906 193.212 354.978 L 169.282 420.727 C 165.98 429.799 155.934 434.484 146.862 431.182 L 146.862 431.182 C 137.791 427.88 133.106 417.834 136.408 408.762 L 160.338 343.013 C 163.64 333.941 173.686 329.256 182.758 332.558 Z" style="stroke:none;fill:#73C2FB;stroke-miterlimit:10;"/><path d="M 336.628 332.558 L 336.628 332.558 C 345.699 335.86 350.384 345.906 347.082 354.978 L 323.152 420.727 C 319.85 429.799 309.804 434.484 300.732 431.182 L 300.732 431.182 C 291.661 427.88 286.976 417.834 290.278 408.762 L 314.208 343.013 C 317.51 333.941 327.556 329.256 336.628 332.558 Z" style="stroke:none;fill:#73C2FB;stroke-miterlimit:10;"/><path d="M 259.687 332.558 L 259.687 332.558 C 268.759 335.86 273.444 345.905 270.142 354.977 L 234.223 453.658 C 230.921 462.729 220.875 467.414 211.803 464.112 L 211.803 464.112 C 202.731 460.81 198.046 450.765 201.348 441.693 L 237.267 343.012 C 240.569 333.941 250.615 329.256 259.687 332.558 Z" style="stroke:none;fill:#73C2FB;stroke-miterlimit:10;"/></g></g></g></svg>