<?xml version="1.0" encoding="UTF-8" standalone="no"?>
<!-- Generator: Gravit.io -->
<svg xmlns="http://www.w3.org/2000/svg" xmlns:xlink="http://www.w3.org/1999/xlink" style="isolation:isolate" viewBox="0 0 512 512" width="512pt" height="512pt"><defs><clipPath id="_clipPath_75Zr8U9onEsaATfr7g5TueXsPm8errOP"><rect width="512" height="512"/></clipPath></defs><g clip-path="url(#_clipPath_75Zr8U9onEsaATfr7g5TueXsPm8errOP)"><g><linearGradient id="_lgradient_18" x1="0.6725493011604686" y1="0.9242481864996646" x2="0.21091880722167577" y2="0.022435828585996243" gradientTransform="matrix(256,0,0,284.634,67.989,35.014)" gradientUnits="userSpaceOnUse"><stop offset="1.6666666666666667%" stop-opacity="1" style="stop-color:rgb(58,83,166)"/><stop offset="100%" stop-opacity="1" style="stop-color:rgb(152,176,255)"/></linearGradient><path d=" M 189.639 35.014 C 120.813 45.368 67.989 104.821 67.989 176.514 C 67.989 255.512 132.126 319.648 211.124 319.648 C 256.954 319.648 297.781 298.063 323.989 264.515 C 316.987 265.601 309.81 266.15 302.505 266.15 C 223.507 266.15 159.37 202.013 159.37 123.015 C 159.37 89.847 170.677 59.298 189.639 35.014 Z " fill-rule="evenodd" fill="url(#_lgradient_18)"/><g><ellipse vector-effect="non-scaling-stroke" cx="175.4192170818506" cy="298.92904982025834" rx="111.41921708185043" ry="107.12114639323306" fill="rgb(236,236,236)"/><rect x="175.419" y="322.964" width="132.646" height="83.086" transform="matrix(1,0,0,1,0,0)" fill="rgb(236,236,236)"/><linearGradient id="_lgradient_19" x1="0.7878327546296294" y1="0.03483016695451924" x2="0.2114438657407408" y2="0.9122049510650548" gradientTransform="matrix(279.869,0,0,281.327,168.131,124.724)" gradientUnits="userSpaceOnUse"><stop offset="1.6666666666666667%" stop-opacity="1" style="stop-color:rgb(208,208,208)"/><stop offset="100%" stop-opacity="1" style="stop-color:rgb(236,236,236)"/></linearGradient><ellipse vector-effect="non-scaling-stroke" cx="308.0654804270463" cy="265.3868510177638" rx="139.93451957295377" ry="140.66334519572945" fill="url(#_lgradient_19)"/><path d="M 182.758 344.368 L 182.758 344.368 C 191.829 347.67 196.514 357.716 193.212 366.788 L 169.282 432.537 C 165.98 441.609 155.934 446.294 146.862 442.992 L 146.862 442.992 C 137.791 439.69 133.106 429.644 136.408 420.572 L 160.338 354.823 C 163.64 345.751 173.686 341.066 182.758 344.368 Z" style="stroke:none;fill:#73C2FB;stroke-miterlimit:10;"/><path d="M 336.628 344.368 L 336.628 344.368 C 345.699 347.67 350.384 357.716 347.082 366.788 L 323.152 432.537 C 319.85 441.609 309.804 446.294 300.732 442.992 L 300.732 442.992 C 291.661 439.69 286.976 429.644 290.278 420.572 L 314.208 354.823 C 317.51 345.751 327.556 341.066 336.628 344.368 Z" style="stroke:none;fill:#73C2FB;stroke-miterlimit:10;"/><path d="M 259.687 344.368 L 259.687 344.368 C 268.759 347.67 273.444 357.717 270.142 366.789 L 234.223 465.477 C 230.921 474.549 220.875 479.234 211.803 475.932 L 211.803 475.932 C 202.731 472.63 198.046 462.583 201.348 453.511 L 237.267 354.823 C 240.569 345.751 250.615 341.066 259.687 344.368 Z" style="stroke:none;fill:#73C2FB;stroke-miterlimit:10;"/></g></g></g></svg>