<?xml version="1.0" encoding="UTF-8" standalone="no"?>
<!-- Generator: Gravit.io -->
<svg xmlns="http://www.w3.org/2000/svg" xmlns:xlink="http://www.w3.org/1999/xlink" style="isolation:isolate" viewBox="0 0 512 512" width="512pt" height="512pt"><defs><clipPath id="_clipPath_OLov6ABZQqL4SHHJJusoQ2RnYTbK9tHm"><rect width="512" height="512"/></clipPath></defs><g clip-path="url(#_clipPath_OLov6ABZQqL4SHHJJusoQ2RnYTbK9tHm)"><g><path d=" M 256 171.152 L 294.788 192.364 L 333.576 213.576 L 333.576 256 L 333.576 298.424 L 294.788 319.636 L 256 340.848 L 217.212 319.636 L 178.424 298.424 L 178.424 256 L 178.424 213.576 L 217.212 192.364 L 256 171.152 Z  M 256 195.985 L 283.435 210.989 L 310.871 225.993 L 310.871 256 L 310.871 286.007 L 283.435 301.011 L 256 316.015 L 228.565 301.011 L 201.129 286.007 L 201.129 256 L 201.129 225.993 L 228.565 210.989 L 256 195.985 Z " fill-rule="evenodd" fill="rgb(115,194,251)"/><path d="M 256 79.38 L 256 79.38 C 262.789 79.38 268.3 84.891 268.3 91.679 L 268.3 183.691 C 268.3 190.479 262.789 195.99 256 195.99 L 256 195.99 C 249.211 195.99 243.7 190.479 243.7 183.691 L 243.7 91.679 C 243.7 84.891 249.211 79.38 256 79.38 Z" style="stroke:none;fill:#73C2FB;stroke-miterlimit:10;"/><path d="M 320.63 88.08 L 320.63 88.08 C 325.43 92.879 325.43 100.672 320.63 105.472 L 269.792 156.31 C 264.992 161.11 257.199 161.11 252.4 156.31 L 252.4 156.31 C 247.6 151.511 247.6 143.718 252.4 138.918 L 303.238 88.08 C 308.038 83.28 315.831 83.28 320.63 88.08 Z" style="stroke:none;fill:#73C2FB;stroke-miterlimit:10;"/><path d="M 191.37 88.08 L 191.37 88.08 C 186.57 92.879 186.57 100.672 191.37 105.472 L 242.208 156.31 C 247.008 161.11 254.801 161.11 259.6 156.31 L 259.6 156.31 C 264.4 151.511 264.4 143.718 259.6 138.918 L 208.762 88.08 C 203.962 83.28 196.169 83.28 191.37 88.08 Z" style="stroke:none;fill:#73C2FB;stroke-miterlimit:10;"/><path d="M 256 432.62 L 256 432.62 C 262.789 432.62 268.3 427.109 268.3 420.321 L 268.3 328.309 C 268.3 321.521 262.789 316.01 256 316.01 L 256 316.01 C 249.211 316.01 243.7 321.521 243.7 328.309 L 243.7 420.321 C 243.7 427.109 249.211 432.62 256 432.62 Z" style="stroke:none;fill:#73C2FB;stroke-miterlimit:10;"/><path d="M 320.63 423.92 L 320.63 423.92 C 325.43 419.121 325.43 411.328 320.63 406.528 L 269.792 355.69 C 264.992 350.89 257.199 350.89 252.4 355.69 L 252.4 355.69 C 247.6 360.489 247.6 368.282 252.4 373.082 L 303.238 423.92 C 308.038 428.72 315.831 428.72 320.63 423.92 Z" style="stroke:none;fill:#73C2FB;stroke-miterlimit:10;"/><path d="M 191.37 423.92 L 191.37 423.92 C 186.57 419.121 186.57 411.328 191.37 406.528 L 242.208 355.69 C 247.008 350.89 254.801 350.89 259.6 355.69 L 259.6 355.69 C 264.4 360.489 264.4 368.282 259.6 373.082 L 208.762 423.92 C 203.962 428.72 196.169 428.72 191.37 423.92 Z" style="stroke:none;fill:#73C2FB;stroke-miterlimit:10;"/><path d="M 108.925 146.651 L 108.925 146.651 C 104.562 151.85 105.241 159.614 110.441 163.977 L 180.927 223.115 C 186.127 227.478 193.891 226.799 198.255 221.599 L 198.255 221.599 C 202.618 216.4 201.939 208.636 196.739 204.273 L 126.253 145.135 C 121.053 140.772 113.289 141.451 108.925 146.651 Z" style="stroke:none;fill:#73C2FB;stroke-miterlimit:10;"/><path d="M 74.047 201.751 L 74.047 201.751 C 74.639 208.514 80.609 213.524 87.371 212.933 L 158.993 206.665 C 165.755 206.073 170.764 200.102 170.173 193.339 L 170.173 193.339 C 169.581 186.576 163.611 181.566 156.849 182.157 L 85.227 188.425 C 78.465 189.017 73.456 194.988 74.047 201.751 Z" style="stroke:none;fill:#73C2FB;stroke-miterlimit:10;"/><path d="M 157.136 102.727 L 157.136 102.727 C 163.896 102.136 169.866 107.146 170.457 113.908 L 176.723 185.538 C 177.314 192.3 172.305 198.271 165.544 198.863 L 165.544 198.863 C 158.784 199.454 152.814 194.444 152.223 187.682 L 145.957 116.052 C 145.366 109.29 150.375 103.319 157.136 102.727 Z" style="stroke:none;fill:#73C2FB;stroke-miterlimit:10;"/><path d="M 108.925 365.349 L 108.925 365.349 C 104.562 360.15 105.241 352.386 110.441 348.023 L 180.927 288.885 C 186.127 284.522 193.891 285.201 198.255 290.401 L 198.255 290.401 C 202.618 295.6 201.939 303.364 196.739 307.727 L 126.253 366.865 C 121.053 371.228 113.289 370.549 108.925 365.349 Z" style="stroke:none;fill:#73C2FB;stroke-miterlimit:10;"/><path d="M 74.047 310.249 L 74.047 310.249 C 74.639 303.486 80.609 298.476 87.371 299.067 L 158.993 305.335 C 165.755 305.927 170.764 311.898 170.173 318.661 L 170.173 318.661 C 169.581 325.424 163.611 330.434 156.849 329.843 L 85.227 323.575 C 78.465 322.983 73.456 317.012 74.047 310.249 Z" style="stroke:none;fill:#73C2FB;stroke-miterlimit:10;"/><path d="M 157.136 409.273 L 157.136 409.273 C 163.896 409.864 169.866 404.854 170.457 398.092 L 176.723 326.462 C 177.314 319.7 172.305 313.729 165.544 313.137 L 165.544 313.137 C 158.784 312.546 152.814 317.556 152.223 324.318 L 145.957 395.948 C 145.366 402.71 150.375 408.681 157.136 409.273 Z" style="stroke:none;fill:#73C2FB;stroke-miterlimit:10;"/><path d="M 403.075 365.349 L 403.075 365.349 C 407.438 360.15 406.759 352.386 401.559 348.023 L 331.073 288.885 C 325.873 284.522 318.109 285.201 313.745 290.401 L 313.745 290.401 C 309.382 295.6 310.061 303.364 315.261 307.727 L 385.747 366.865 C 390.947 371.228 398.711 370.549 403.075 365.349 Z" style="stroke:none;fill:#73C2FB;stroke-miterlimit:10;"/><path d="M 437.953 310.249 L 437.953 310.249 C 437.361 303.486 431.391 298.476 424.629 299.067 L 353.007 305.335 C 346.245 305.927 341.236 311.898 341.827 318.661 L 341.827 318.661 C 342.419 325.424 348.389 330.434 355.151 329.843 L 426.773 323.575 C 433.535 322.983 438.544 317.012 437.953 310.249 Z" style="stroke:none;fill:#73C2FB;stroke-miterlimit:10;"/><path d="M 354.864 409.273 L 354.864 409.273 C 348.104 409.864 342.134 404.854 341.543 398.092 L 335.277 326.462 C 334.686 319.7 339.695 313.729 346.456 313.137 L 346.456 313.137 C 353.216 312.546 359.186 317.556 359.777 324.318 L 366.043 395.948 C 366.634 402.71 361.625 408.681 354.864 409.273 Z" style="stroke:none;fill:#73C2FB;stroke-miterlimit:10;"/><path d="M 403.075 153.461 L 403.075 153.461 C 407.438 158.662 406.759 166.426 401.559 170.789 L 331.073 229.935 C 325.873 234.298 318.109 233.619 313.745 228.419 L 313.745 228.419 C 309.382 223.218 310.061 215.454 315.261 211.091 L 385.747 151.945 C 390.947 147.582 398.711 148.261 403.075 153.461 Z" style="stroke:none;fill:#73C2FB;stroke-miterlimit:10;"/><path d="M 437.953 208.564 L 437.953 208.564 C 437.361 215.325 431.391 220.334 424.629 219.743 L 353.007 213.477 C 346.245 212.886 341.236 206.916 341.827 200.156 L 341.827 200.156 C 342.419 193.395 348.389 188.386 355.151 188.977 L 426.773 195.243 C 433.535 195.834 438.544 201.804 437.953 208.564 Z" style="stroke:none;fill:#73C2FB;stroke-miterlimit:10;"/><path d="M 354.864 109.547 L 354.864 109.547 C 348.104 108.956 342.134 113.965 341.543 120.727 L 335.277 192.349 C 334.686 199.111 339.695 205.081 346.456 205.673 L 346.456 205.673 C 353.216 206.264 359.186 201.255 359.777 194.493 L 366.043 122.871 C 366.634 116.109 361.625 110.139 354.864 109.547 Z" style="stroke:none;fill:#73C2FB;stroke-miterlimit:10;"/></g></g></svg>